<?xml version="1.0" encoding="UTF-8"?>
<svg xmlns="http://www.w3.org/2000/svg" xmlns:xlink="http://www.w3.org/1999/xlink" width="13px" height="14px" viewBox="0 0 13 14" version="1.1">
<g id="surface1">
<path style=" stroke:none;fill-rule:nonzero;fill:#516278;fill-opacity:1;" d="M 5.375 1.828125 L 6.003906 1.222656 C 6.265625 0.964844 6.691406 0.964844 6.957031 1.222656 L 12.441406 6.535156 C 12.707031 6.792969 12.707031 7.207031 12.441406 7.460938 L 6.957031 12.777344 C 6.691406 13.035156 6.261719 13.035156 6.003906 12.777344 L 5.375 12.171875 C 5.105469 11.910156 5.113281 11.488281 5.386719 11.230469 L 8.785156 8.09375 L 0.675781 8.09375 C 0.304688 8.09375 0 7.800781 0 7.4375 L 0 6.5625 C 0 6.199219 0.304688 5.90625 0.675781 5.90625 L 8.785156 5.90625 L 5.386719 2.769531 C 5.109375 2.511719 5.101562 2.089844 5.375 1.828125 Z M 5.375 1.828125 "/>
</g>
</svg>
